# Blender v2.82 (sub 7) OBJ File: ''
# www.blender.org
mtllib figure_4.mtl
o Cube.004_Cube.013
v -0.996746 0.996746 -0.048935
v -0.996746 -0.996746 0.048934
v -0.996746 0.996746 0.048934
v -0.934099 -0.934099 0.048934
v -0.934099 0.934099 0.048934
v -0.996746 -0.996746 -0.048934
v 0.996746 -0.996746 0.048935
v -0.934099 -0.934099 -0.048934
v 0.996746 -0.996746 -0.048934
v 0.934099 -0.934099 -0.048934
v 0.934099 -0.934099 0.048935
v 0.934099 0.934099 -0.048934
v 0.934099 0.934099 0.048934
v 0.996746 0.996746 -0.048934
v 0.996746 0.996746 0.048934
v -0.934099 0.934099 -0.048935
vt 0.203236 0.251334
vt 0.215411 0.499340
vt 0.215411 0.251334
vt 0.981563 0.993577
vt 0.966094 0.516803
vt 0.966094 0.978109
vt 0.203236 0.499340
vt 0.215411 0.747339
vt 0.489319 0.501334
vt 0.981563 0.501334
vt 0.981563 0.009090
vt 0.966094 0.485865
vt 0.981563 0.501333
vt 0.489319 0.501334
vt 0.217349 0.468163
vt 0.229525 0.700578
vt 0.229525 0.468163
vt 0.217349 0.235748
vt 0.229525 0.235748
vt 0.217349 0.003328
vt 0.229525 0.003328
vt 0.504788 0.485865
vt 0.489319 0.009090
vt 0.489319 0.993577
vt 0.504788 0.516803
vt 0.217350 0.700578
vt 0.229525 0.932989
vt 0.504788 0.978108
vt 0.203236 0.747339
vt 0.215411 0.995339
vt 0.203236 0.003329
vt 0.215411 0.003328
vt 0.504788 0.024559
vt 0.966094 0.024559
vt 0.217350 0.932989
vt 0.203236 0.995339
vn -1.0000 0.0000 0.0000
vn 0.0000 -0.0000 1.0000
vn 0.0000 -1.0000 0.0000
vn 0.0000 0.0000 -1.0000
vn 1.0000 -0.0000 0.0000
vn 0.0000 1.0000 0.0000
usemtl Material.011
s 1
f 1/1/1 2/2/1 3/3/1
f 3/4/2 4/5/2 5/6/2
f 6/7/3 7/8/3 2/2/3
f 7/9/2 4/5/2 2/10/2
f 1/11/4 8/12/4 6/13/4
f 8/12/4 9/14/4 6/13/4
f 8/15/5 5/16/5 4/17/5
f 10/18/6 4/17/6 11/19/6
f 12/20/1 11/19/1 13/21/1
f 10/22/4 14/23/4 9/14/4
f 15/24/2 11/25/2 7/9/2
f 16/26/3 13/27/3 5/16/3
f 3/4/2 13/28/2 15/24/2
f 9/29/5 15/30/5 7/8/5
f 14/31/6 3/3/6 15/32/6
f 12/33/4 1/11/4 14/23/4
f 1/1/1 6/7/1 2/2/1
f 3/4/2 2/10/2 4/5/2
f 6/7/3 9/29/3 7/8/3
f 7/9/2 11/25/2 4/5/2
f 1/11/4 16/34/4 8/12/4
f 8/12/4 10/22/4 9/14/4
f 8/15/5 16/26/5 5/16/5
f 10/18/6 8/15/6 4/17/6
f 12/20/1 10/18/1 11/19/1
f 10/22/4 12/33/4 14/23/4
f 15/24/2 13/28/2 11/25/2
f 16/26/3 12/35/3 13/27/3
f 3/4/2 5/6/2 13/28/2
f 9/29/5 14/36/5 15/30/5
f 14/31/6 1/1/6 3/3/6
f 12/33/4 16/34/4 1/11/4
