# Blender v2.82 (sub 7) OBJ File: ''
# www.blender.org
mtllib figure_3.mtl
o Cube.003_Cube.012
v 0.997762 -0.000000 0.039157
v 0.498881 0.864088 -0.039157
v 0.498881 0.864088 0.039157
v 0.467526 0.809779 0.039157
v 0.498881 -0.864087 0.039157
v 0.997762 0.000000 -0.039157
v 0.935051 -0.000000 0.039157
v 0.467526 0.809779 -0.039157
v 0.467526 -0.809778 -0.039157
v 0.935051 0.000000 -0.039157
v 0.467526 -0.809778 0.039157
v -0.467526 -0.809778 -0.039157
v -0.467526 -0.809778 0.039157
v -0.498881 -0.864087 -0.039157
v 0.498881 -0.864087 -0.039157
v -0.498881 -0.864087 0.039157
v -0.935051 0.000000 -0.039157
v -0.935051 -0.000000 0.039157
v -0.997762 -0.000000 0.039157
v -0.498881 0.864088 0.039157
v -0.997762 0.000000 -0.039157
v -0.467526 0.809779 -0.039157
v -0.467526 0.809779 0.039157
v -0.498881 0.864088 -0.039157
vt 0.971506 0.500006
vt 0.958425 0.334426
vt 0.971506 0.334426
vt 0.359081 0.479405
vt 0.633418 0.494823
vt 0.350181 0.494822
vt 0.971506 0.665583
vt 0.958424 0.500006
vt 0.624518 0.479406
vt 0.775036 0.249534
vt 0.350179 0.994195
vt 0.624516 0.978781
vt 0.633417 0.994198
vt 0.226365 0.748906
vt 0.359080 0.978778
vt 0.988280 0.624765
vt 0.975198 0.468573
vt 0.988280 0.468573
vt 0.975198 0.312382
vt 0.988280 0.312382
vt 0.975198 0.156191
vt 0.988280 0.156191
vt 0.350181 0.503620
vt 0.208564 0.748906
vt 0.757234 0.249534
vt 0.633419 0.004245
vt 0.975198 0.000000
vt 0.988280 0.000000
vt 0.359082 0.019661
vt 0.350182 0.004245
vt 0.971507 0.996738
vt 0.958425 0.831159
vt 0.971507 0.831159
vt 0.958425 0.665583
vt 0.624519 0.519037
vt 0.359082 0.519036
vt 0.971507 0.168845
vt 0.958425 0.003262
vt 0.971507 0.003262
vt 0.633420 0.503620
vt 0.757234 0.748910
vt 0.988280 0.937150
vt 0.975198 0.780957
vt 0.988280 0.780957
vt 0.975198 0.624765
vt 0.775036 0.748910
vt 0.226365 0.249533
vt 0.208564 0.249532
vt 0.958425 0.168845
vt 0.624518 0.019662
vt 0.958425 0.996738
vt 0.975198 0.937150
vn 0.8660 0.5000 0.0000
vn -0.0000 -0.0000 1.0000
vn 0.8660 -0.5000 0.0000
vn -0.0000 0.0000 -1.0000
vn -0.8660 -0.5000 0.0000
vn -0.8660 0.5000 0.0000
vn 0.0000 1.0000 0.0000
vn 0.0000 -1.0000 0.0000
usemtl Material.010
s 1
f 1/1/1 2/2/1 3/3/1
f 4/4/2 1/5/2 3/6/2
f 5/7/3 6/8/3 1/1/3
f 7/9/2 5/10/2 1/5/2
f 6/11/4 8/12/4 2/13/4
f 6/11/4 9/14/4 10/15/4
f 4/16/5 10/17/5 7/18/5
f 7/18/6 9/19/6 11/20/6
f 11/20/7 12/21/7 13/22/7
f 14/23/4 9/14/4 15/24/4
f 11/25/2 16/26/2 5/10/2
f 13/22/1 17/27/1 18/28/1
f 16/26/2 18/29/2 19/30/2
f 19/31/5 14/32/5 16/33/5
f 16/33/8 15/34/8 5/7/8
f 14/23/4 17/35/4 12/36/4
f 20/37/6 21/38/6 19/39/6
f 21/40/4 22/41/4 17/35/4
f 18/42/3 22/43/3 23/44/3
f 23/44/8 8/45/8 4/16/8
f 2/13/4 22/41/4 24/46/4
f 23/47/2 3/6/2 20/48/2
f 18/29/2 20/48/2 19/30/2
f 3/3/7 24/49/7 20/37/7
f 1/1/1 6/8/1 2/2/1
f 4/4/2 7/9/2 1/5/2
f 5/7/3 15/34/3 6/8/3
f 7/9/2 11/25/2 5/10/2
f 6/11/4 10/15/4 8/12/4
f 6/11/4 15/24/4 9/14/4
f 4/16/5 8/45/5 10/17/5
f 7/18/6 10/17/6 9/19/6
f 11/20/7 9/19/7 12/21/7
f 14/23/4 12/36/4 9/14/4
f 11/25/2 13/50/2 16/26/2
f 13/22/1 12/21/1 17/27/1
f 16/26/2 13/50/2 18/29/2
f 19/31/5 21/51/5 14/32/5
f 16/33/8 14/32/8 15/34/8
f 14/23/4 21/40/4 17/35/4
f 20/37/6 24/49/6 21/38/6
f 21/40/4 24/46/4 22/41/4
f 18/42/3 17/52/3 22/43/3
f 23/44/8 22/43/8 8/45/8
f 2/13/4 8/12/4 22/41/4
f 23/47/2 4/4/2 3/6/2
f 18/29/2 23/47/2 20/48/2
f 3/3/7 2/2/7 24/49/7
